<svg id="Layer_1_copy" height="512" viewBox="0 0 64 64" width="512" xmlns="http://www.w3.org/2000/svg" xmlns:xlink="http://www.w3.org/1999/xlink" data-name="Layer 1 copy"><linearGradient id="linear-gradient" gradientUnits="userSpaceOnUse" x1="61" x2=".04" y1="-2" y2="58.96"><stop offset="0" stop-color="#f7941e"/><stop offset="1" stop-color="#ee2a7b"/></linearGradient><linearGradient id="linear-gradient-2" x1="69.99" x2="9.02" xlink:href="#linear-gradient" y1="6.99" y2="67.95"/><linearGradient id="linear-gradient-3" x1="52.25" x2="-8.71" xlink:href="#linear-gradient" y1="-10.75" y2="50.21"/><linearGradient id="linear-gradient-4" x1="54.25" x2="-6.71" xlink:href="#linear-gradient" y1="-8.75" y2="52.21"/><path d="m17.18 12.95 6 2a1 1 0 0 0 .56 0l3.1-.78.54 1.62-2.68 3.61a1 1 0 0 0 .06 1.28l4.58 5a1 1 0 1 0 1.47-1.35l-4-4.39 2.5-3.34a1 1 0 0 0 .15-.92l-1-3a1 1 0 0 0 -1.2-.68l-3.72 1-5.15-1.72-.73-4.38 9.93-.9a1 1 0 0 0 .86-.68l.77-2.32h6.15l.13 3a1 1 0 0 0 .7.91l7.43 2.39-6.16 3.85a1 1 0 0 0 -.29.27l-3.5 5a1 1 0 0 0 0 1.16l7.94 10.92 4.33 9.5h-1.95a1 1 0 0 0 0 2h2.37l-.79 6.34-1 .51a1 1 0 0 0 .89 1.79l1.5-.75a1 1 0 0 0 .54-.77l1-8s0-.05 0-.08 0 0 0 0 0 0 0-.05a1 1 0 0 0 -.06-.3v-.05l-5-11a1 1 0 0 0 -.1-.17l-7.62-10.47 3-4.25 7.83-4.89a1 1 0 0 0 -.26-1.86l-8.83-2.74-.14-3.26a1 1 0 0 0 -1-1h-7.83a1 1 0 0 0 -.95.68l-.79 2.38-10.35.94a1 1 0 0 0 -.9 1.16l1 6a1 1 0 0 0 .67.79z" fill="url(#linear-gradient)"/><path d="m28.05 62.89a1 1 0 0 0 1-.09l8-6a1 1 0 0 0 .23-.25l1.85-2.78 2.26-1.13a1 1 0 1 0 -.89-1.79l-2.5 1.25a1 1 0 0 0 -.38.34l-1.9 2.86-6.22 4.7v-4a1 1 0 0 0 -.11-.45l-1.27-2.55h4.38a1 1 0 0 0 1-1v-3.28l5.32-1.77a1 1 0 0 0 .66-1.15l-1-4.91-1-9a1 1 0 0 0 -.26-.57l-3.5-3.81a1 1 0 1 0 -1.47 1.35l3.28 3.57 1 8.76.83 4.13-5.16 1.72a1 1 0 0 0 -.68.95v3h-5a1 1 0 0 0 -.89 1.45l1.89 3.79v5.77a1 1 0 0 0 .53.89z" fill="url(#linear-gradient-2)"/><path d="m33 10a1 1 0 0 0 -1-1h-1a1 1 0 0 0 0 2h1a1 1 0 0 0 1-1z" fill="url(#linear-gradient-3)"/><path d="m36 11a1 1 0 0 0 0-2h-1a1 1 0 0 0 0 2z" fill="url(#linear-gradient-4)"/></svg>